<?xml version="1.0" encoding="UTF-8"?>
<svg width="256" height="256" viewBox="0 0 256 256" xmlns="http://www.w3.org/2000/svg">
  <defs>
    <linearGradient id="grad" x1="0%" y1="0%" x2="100%" y2="100%">
      <stop offset="0%" stop-color="#60a5fa"/>
      <stop offset="50%" stop-color="#22d3ee"/>
      <stop offset="100%" stop-color="#8b5cf6"/>
    </linearGradient>
    <filter id="shadow" x="-20%" y="-20%" width="140%" height="140%">
      <feDropShadow dx="0" dy="4" stdDeviation="6" flood-color="rgba(0,0,0,0.25)"/>
    </filter>
  </defs>
  <g filter="url(#shadow)">
    <path d="M128 16l84 28v64c0 64-48 104-84 112-36-8-84-48-84-112V44l84-28z" fill="url(#grad)"/>
    <path d="M128 48l56 18v46c0 46-34 76-56 84-22-8-56-38-56-84V66l56-18z" fill="rgba(255,255,255,0.35)"/>
    <path d="M128 92c-20 0-36 16-36 36s16 36 36 36 36-16 36-36-16-36-36-36zm0 58c-12 0-22-10-22-22s10-22 22-22 22 10 22 22-10 22-22 22z" fill="#0f172a" opacity="0.8"/>
  </g>
</svg>